<svg width="512" height="95" viewBox="0 0 512 95" fill="none" xmlns="http://www.w3.org/2000/svg">
<path d="M0 28.4585C0 15.6104 10.4154 5.19498 23.2635 5.19498H89.4752V71.4066C89.4752 84.2547 79.0597 94.6702 66.2116 94.6702H0V28.4585Z" fill="#5AAFAF"/>
<path d="M31.6873 21.6782C28.0367 22.4728 25.4339 24.916 24.141 28.771C23.1269 31.8059 22.9917 35.3312 23.7354 39.2622C24.3184 42.3394 24.9945 44.6135 26.9804 50.2523C28.7973 55.4176 29.5494 57.7931 30.4789 61.293C31.3409 64.5478 32.262 68.8423 32.262 69.6032C32.262 70.5754 32.7183 71.8857 33.293 72.5367C34.062 73.4074 35.2957 73.3398 36.2084 72.393C36.6732 71.9026 37.4084 70.7275 37.9661 69.5694C38.6929 68.0646 40.8224 62.8485 41.3886 61.2C42.0731 59.1965 42.4956 58.4356 43.197 57.9453C43.9829 57.4127 44.5576 57.4296 45.2167 58.0214C46.0533 58.7653 47.1519 62.037 48.3181 67.2023C48.8927 69.7215 49.5603 71.3362 50.4307 72.2577C51.0814 72.9509 51.5884 73.1961 52.4166 73.1961C53.2363 73.1961 53.7602 72.9509 54.3602 72.3C55.3912 71.184 55.9996 69.451 57.1912 64.1589C58.3743 58.909 58.8897 57.0154 59.7686 54.513C60.6982 51.9008 61.5094 50.0747 63.0305 47.2004C64.9826 43.5061 65.8361 41.3081 66.3431 38.6704C66.5882 37.3855 66.6051 34.6041 66.3685 33.0486C66.0305 30.7238 65.5403 28.9231 64.8474 27.4691C64.3404 26.3954 63.9347 25.7952 63.2418 25.0682C61.839 23.6141 60.3601 22.9293 58.1376 22.6842C56.7179 22.532 54.8081 22.6926 51.9603 23.2083C48.9941 23.7494 47.9378 23.8846 46.5012 23.9353C44.3801 24.003 43.3998 23.8339 39.2929 22.6588C36.3521 21.8134 35.169 21.5852 33.6563 21.5429C32.7014 21.5175 32.3211 21.5429 31.6873 21.6782Z" fill="white"/>
<line x1="114.528" y1="5.19498" x2="114.528" y2="94.6702" stroke="black" stroke-width="3.57901"/>
<path d="M151.58 60.6977C151.996 60.6977 152.263 60.8906 152.382 61.2764L163.11 91.4131H161.196L157.412 80.596H143.256L139.472 91.4131H137.558L148.286 61.2764C148.405 60.8906 148.672 60.6977 149.087 60.6977H151.58ZM148.82 64.7041L143.835 78.9934H156.833L151.847 64.7041C151.669 64.2886 151.506 63.8731 151.358 63.4576C151.239 63.0422 151.105 62.6267 150.957 62.2112H149.711C149.562 62.6267 149.414 63.0422 149.266 63.4576C149.117 63.8731 148.969 64.2886 148.82 64.7041ZM169.182 60.6977V70.9807C169.182 71.6633 169.167 72.2865 169.137 72.8503C169.107 73.4142 169.063 74.0077 169.003 74.6309H173.811L184.228 60.6977H186.32L176.393 74.0522C176.185 74.349 175.977 74.6013 175.77 74.809C175.562 75.0167 175.369 75.1948 175.191 75.3432V75.4322C175.399 75.6103 175.607 75.818 175.814 76.0554C176.022 76.2632 176.23 76.5006 176.437 76.7677L187.032 91.4131H184.895L173.811 76.1444H169.048C169.107 76.7973 169.137 77.4205 169.137 78.0141C169.167 78.6076 169.182 79.216 169.182 79.8392V91.4131H167.401V60.6977H169.182ZM203.898 79.4831V80.9521H190.098V79.4831H203.898ZM221.42 60.2971C224.21 60.2971 226.436 60.8016 228.098 61.8106C229.789 62.8196 230.991 64.4815 231.703 66.7963C232.445 69.0814 232.816 72.1678 232.816 76.0554C232.816 79.9431 232.445 83.0443 231.703 85.3591C230.991 87.6442 229.789 89.2913 228.098 90.3003C226.436 91.3093 224.21 91.8138 221.42 91.8138C219.432 91.8138 217.577 91.7693 215.856 91.6802C214.164 91.6209 212.562 91.5318 211.048 91.4131V60.6977C212.562 60.579 214.164 60.49 215.856 60.4306C217.577 60.3416 219.432 60.2971 221.42 60.2971ZM221.42 61.9441C219.758 61.9441 218.23 61.959 216.835 61.9886C215.47 62.0183 214.15 62.048 212.873 62.0777V90.0332C214.12 90.0628 215.441 90.0925 216.835 90.1222C218.23 90.1519 219.758 90.1667 221.42 90.1667C223.765 90.1667 225.62 89.7216 226.985 88.8313C228.38 87.941 229.374 86.472 229.967 84.4243C230.59 82.3469 230.902 79.5573 230.902 76.0554C230.902 72.5536 230.59 69.7788 229.967 67.7311C229.374 65.6537 228.38 64.1699 226.985 63.2796C225.62 62.3893 223.765 61.9441 221.42 61.9441ZM244.175 60.6977C246.371 60.6977 248.567 60.7125 250.763 60.7422C252.959 60.7422 255.125 60.7867 257.262 60.8758L257.173 62.2557H244.486C243.477 62.2557 242.661 62.5822 242.038 63.2351C241.415 63.8583 241.103 64.6892 241.103 65.7279V74.2303L255.348 74.2748V75.7438L241.103 75.7883V86.3829C241.103 87.4513 241.415 88.2971 242.038 88.9203C242.661 89.5435 243.477 89.8551 244.486 89.8551H257.173L257.262 91.2351C255.125 91.3241 252.959 91.3835 250.763 91.4131C248.567 91.4131 246.371 91.4131 244.175 91.4131C242.72 91.4131 241.533 90.9828 240.613 90.1222C239.723 89.2319 239.278 88.0893 239.278 86.6945V65.4163C239.278 64.0215 239.723 62.8938 240.613 62.0332C241.533 61.1428 242.72 60.6977 244.175 60.6977ZM285.295 60.6977V90.5228C285.295 91.1164 284.998 91.4131 284.404 91.4131H282.001C281.526 91.4131 281.184 91.1906 280.977 90.7454L267.711 65.6389C267.444 65.1344 267.162 64.6002 266.865 64.0363C266.569 63.4725 266.302 62.9086 266.064 62.3448H265.04C265.07 62.9086 265.085 63.4725 265.085 64.0363C265.085 64.6002 265.085 65.1492 265.085 65.6834V91.4131H263.26V61.588C263.26 60.9945 263.556 60.6977 264.15 60.6977H266.376C266.88 60.6977 267.236 60.9203 267.444 61.3654L280.354 85.8933C280.68 86.4868 281.006 87.11 281.333 87.7629C281.689 88.4158 282.03 89.0687 282.357 89.7216H283.47C283.47 88.2971 283.47 86.9023 283.47 85.5371V60.6977H285.295ZM312.911 60.6977V62.3002H302.317V91.4131H300.491V62.3002H289.941V60.6977H312.911ZM325.148 60.6977C325.563 60.6977 325.83 60.8906 325.949 61.2764L336.677 91.4131H334.763L330.979 80.596H316.823L313.039 91.4131H311.125L321.853 61.2764C321.972 60.8906 322.239 60.6977 322.655 60.6977H325.148ZM322.388 64.7041L317.402 78.9934H330.4L325.415 64.7041C325.237 64.2886 325.073 63.8731 324.925 63.4576C324.806 63.0422 324.673 62.6267 324.524 62.2112H323.278C323.13 62.6267 322.981 63.0422 322.833 63.4576C322.684 63.8731 322.536 64.2886 322.388 64.7041Z" fill="black"/>
<path d="M153.695 50.7919C156.353 50.7919 158.72 50.352 160.796 49.4721C162.89 48.5922 164.545 47.3251 165.759 45.6709C166.973 43.9991 167.58 41.9841 167.58 39.626C167.58 37.831 167.246 36.3439 166.577 35.1649C165.926 33.9682 165.099 33.0091 164.096 32.2876C163.11 31.5485 162.098 30.9853 161.06 30.5982C160.022 30.1934 159.116 29.8855 158.341 29.6743L150.897 27.4833C149.912 27.2018 148.891 26.841 147.835 26.4011C146.797 25.9611 145.917 25.354 145.196 24.5797C144.492 23.8054 144.14 22.7759 144.14 21.4912C144.14 20.2242 144.527 19.0979 145.301 18.1124C146.075 17.1093 147.131 16.3262 148.469 15.7631C149.806 15.1823 151.32 14.9008 153.009 14.9184C155.666 14.936 157.945 15.6839 159.846 17.1621C161.764 18.6227 162.917 20.5849 163.304 23.0486L167.369 22.3095C166.753 18.8955 165.16 16.203 162.591 14.232C160.022 12.2435 156.837 11.2404 153.035 11.2228C150.537 11.2052 148.31 11.6275 146.357 12.4898C144.404 13.3345 142.864 14.54 141.738 16.1062C140.611 17.6548 140.048 19.5026 140.048 21.6496C140.048 24.2013 140.814 26.1899 142.345 27.6153C143.893 29.0232 145.829 30.0702 148.152 30.7566L157.787 33.6338C158.667 33.8978 159.556 34.2586 160.453 34.7161C161.35 35.1737 162.098 35.8072 162.697 36.6167C163.313 37.4262 163.621 38.4821 163.621 39.7844C163.621 41.2802 163.198 42.5736 162.354 43.6647C161.509 44.7558 160.347 45.6005 158.869 46.1988C157.409 46.7796 155.737 47.0699 153.854 47.0699C151.02 47.0699 148.583 46.3748 146.542 44.9846C144.5 43.5767 143.163 41.6409 142.529 39.1772L138.57 39.8371C139.01 42.0897 139.916 44.0343 141.289 45.6709C142.661 47.3075 144.404 48.5746 146.515 49.4721C148.645 50.352 151.038 50.7919 153.695 50.7919ZM181.291 50H185.172V15.7103H198.449V11.9883H168.014V15.7103H181.291V50ZM216.224 50.7919C220.025 50.7919 223.228 49.956 225.833 48.2842C228.437 46.6124 230.408 44.2894 231.746 41.3154C233.083 38.3237 233.752 34.8833 233.752 30.9941C233.752 27.0874 233.083 23.647 231.746 20.6729C230.408 17.6988 228.437 15.3759 225.833 13.7041C223.228 12.0323 220.025 11.1964 216.224 11.1964C212.441 11.1964 209.247 12.0323 206.642 13.7041C204.038 15.3759 202.067 17.6988 200.729 20.6729C199.392 23.647 198.723 27.0874 198.723 30.9941C198.723 34.8833 199.392 38.3237 200.729 41.3154C202.067 44.2894 204.038 46.6124 206.642 48.2842C209.247 49.956 212.441 50.7919 216.224 50.7919ZM216.224 47.0699C213.25 47.0523 210.76 46.366 208.754 45.011C206.765 43.6559 205.278 41.7729 204.293 39.362C203.307 36.9511 202.823 34.1618 202.841 30.9941C202.876 27.8265 203.386 25.0372 204.372 22.6263C205.357 20.1978 206.836 18.306 208.807 16.9509C210.778 15.5783 213.25 14.9008 216.224 14.9184C219.198 14.936 221.68 15.6223 223.668 16.9773C225.657 18.3324 227.144 20.2154 228.129 22.6263C229.132 25.0372 229.634 27.8265 229.634 30.9941C229.634 34.1618 229.132 36.9599 228.129 39.3884C227.144 41.7993 225.657 43.6823 223.668 45.0374C221.68 46.3924 219.198 47.0699 216.224 47.0699ZM237.19 50H240.912V20.6465L254.428 50H256.935L270.477 20.6465V49.9736H274.173V11.9883H270.556L255.695 43.9551L240.754 11.9883H237.19V50ZM277.093 50H281.132L284.3 40.7874H301.194L304.388 50H308.426L295.334 11.9883H290.186L277.093 50ZM285.567 37.1447L292.72 16.3702L299.927 37.1447H285.567ZM318.31 50H322.191V15.7103H335.469V11.9883H305.033V15.7103H318.31V50ZM353.243 50.7919C357.044 50.7919 360.247 49.956 362.852 48.2842C365.456 46.6124 367.427 44.2894 368.765 41.3154C370.102 38.3237 370.771 34.8833 370.771 30.9941C370.771 27.0874 370.102 23.647 368.765 20.6729C367.427 17.6988 365.456 15.3759 362.852 13.7041C360.247 12.0323 357.044 11.1964 353.243 11.1964C349.46 11.1964 346.266 12.0323 343.661 13.7041C341.057 15.3759 339.086 17.6988 337.748 20.6729C336.411 23.647 335.742 27.0874 335.742 30.9941C335.742 34.8833 336.411 38.3237 337.748 41.3154C339.086 44.2894 341.057 46.6124 343.661 48.2842C346.266 49.956 349.46 50.7919 353.243 50.7919ZM353.243 47.0699C350.269 47.0523 347.779 46.366 345.773 45.011C343.784 43.6559 342.297 41.7729 341.312 39.362C340.326 36.9511 339.842 34.1618 339.86 30.9941C339.895 27.8265 340.405 25.0372 341.391 22.6263C342.376 20.1978 343.855 18.306 345.826 16.9509C347.797 15.5783 350.269 14.9008 353.243 14.9184C356.217 14.936 358.699 15.6223 360.687 16.9773C362.676 18.3324 364.163 20.2154 365.148 22.6263C366.151 25.0372 366.653 27.8265 366.653 30.9941C366.653 34.1618 366.151 36.9599 365.148 39.3884C364.163 41.7993 362.676 43.6823 360.687 45.0374C358.699 46.3924 356.217 47.0699 353.243 47.0699ZM374.737 50H396.673V46.278H378.618V11.9883H374.737V50ZM413.684 50.7919C417.485 50.7919 420.688 49.956 423.293 48.2842C425.897 46.6124 427.868 44.2894 429.206 41.3154C430.543 38.3237 431.212 34.8833 431.212 30.9941C431.212 27.0874 430.543 23.647 429.206 20.6729C427.868 17.6988 425.897 15.3759 423.293 13.7041C420.688 12.0323 417.485 11.1964 413.684 11.1964C409.901 11.1964 406.707 12.0323 404.102 13.7041C401.498 15.3759 399.527 17.6988 398.189 20.6729C396.852 23.647 396.183 27.0874 396.183 30.9941C396.183 34.8833 396.852 38.3237 398.189 41.3154C399.527 44.2894 401.498 46.6124 404.102 48.2842C406.707 49.956 409.901 50.7919 413.684 50.7919ZM413.684 47.0699C410.71 47.0523 408.22 46.366 406.214 45.011C404.225 43.6559 402.738 41.7729 401.753 39.362C400.767 36.9511 400.283 34.1618 400.301 30.9941C400.336 27.8265 400.846 25.0372 401.832 22.6263C402.817 20.1978 404.296 18.306 406.267 16.9509C408.238 15.5783 410.71 14.9008 413.684 14.9184C416.658 14.936 419.14 15.6223 421.128 16.9773C423.117 18.3324 424.604 20.2154 425.589 22.6263C426.592 25.0372 427.094 27.8265 427.094 30.9941C427.094 34.1618 426.592 36.9599 425.589 39.3884C424.604 41.7993 423.117 43.6823 421.128 45.0374C419.14 46.3924 416.658 47.0699 413.684 47.0699ZM449.881 50.7919C453.612 50.7919 456.709 50.0176 459.173 48.469C461.655 46.9027 463.511 44.7646 464.743 42.0545C465.975 39.3444 466.591 36.2823 466.591 32.8683C466.591 32.6748 466.582 32.358 466.564 31.918C466.547 31.4605 466.52 31.0293 466.485 30.6246H453.656V33.9506H462.42C462.226 37.9982 461.135 41.201 459.147 43.5591C457.158 45.9173 454.123 47.0875 450.04 47.0699C447.066 47.0523 444.576 46.366 442.569 45.011C440.581 43.6559 439.094 41.7729 438.108 39.362C437.123 36.9511 436.639 34.1618 436.657 30.9941C436.692 27.8265 437.202 25.0372 438.188 22.6263C439.173 20.2154 440.651 18.3324 442.622 16.9773C444.593 15.6223 447.066 14.9536 450.04 14.9712C452.838 14.9712 455.178 15.6663 457.061 17.0565C458.962 18.4468 460.335 20.3034 461.179 22.6263L465.086 21.676C464.083 18.4908 462.306 15.9566 459.754 14.0737C457.22 12.1731 453.929 11.2228 449.881 11.2228C446.256 11.2228 443.15 12.0411 440.563 13.6777C437.976 15.3143 435.988 17.6109 434.598 20.5673C433.225 23.5238 432.539 26.9994 432.539 30.9941C432.539 35.0065 433.234 38.4997 434.624 41.4738C436.032 44.4302 438.029 46.7268 440.616 48.3634C443.203 49.9824 446.291 50.7919 449.881 50.7919ZM477.482 50H481.389V34.0826L494.086 11.9883H489.599L479.436 29.6479L469.22 11.9883H464.733L477.482 34.0826V50Z" fill="black"/>
</svg>
